<svg t="1578987200129" class="icon" viewBox="0 0 1024 1024" version="1.1" xmlns="http://www.w3.org/2000/svg" p-id="920" width="200" height="200"><path d="M366.87 290.17l38.69-38.69c2.9-2.9 6.84-4.53 10.94-4.53h198.74c4.1 0 8.04 1.63 10.94 4.53l38.69 38.69c6.04 6.04 6.04 15.84 0 21.88L552.02 424.9h-72.29L366.87 312.05c-6.04-6.04-6.04-15.84 0-21.88z" fill="#E60037" p-id="921"></path><path d="M492.12 393.95h47.5l76.74-76.74c6.04-6.04 6.04-15.84 0-21.88l-12.9-12.9a15.48 15.48 0 0 0-10.94-4.53h-153.3c-4.1 0-8.04 1.63-10.94 4.53l-12.9 12.9c-6.04 6.04-6.04 15.84 0 21.88l76.74 76.74z m-22.67-85.1h92.83c6.89 0 10.34 8.33 5.47 13.21L526.8 363h-21.87l-40.95-40.95c-4.87-4.87-1.42-13.2 5.47-13.2z" fill="#FFB400" p-id="922"></path><path d="M469.45 308.85h92.83c6.89 0 10.34 8.33 5.47 13.21L526.8 363h-21.87l-40.95-40.95c-4.87-4.87-1.42-13.2 5.47-13.2z" fill="#FFF7E4" p-id="923"></path><path d="M847.96 688.83l-95.64-318.8a30.909 30.909 0 0 0-7.76-12.99l-41.52-41.52c6.18-11.69 4.5-26.45-5.34-36.29l-54.16-54.16c-5.8-5.8-13.68-9.06-21.88-9.06H410.09c-8.21 0-16.08 3.26-21.88 9.06l-54.16 54.16c-8.35 8.35-10.79 20.25-7.6 30.82l-47 47a30.97 30.97 0 0 0-7.76 12.99l-95.64 318.8 17.73 7.88-17.22 70.26L279.12 808l32.39-58.97 7.07 3.14v12.05c0 17.09 13.86 30.95 30.95 30.95h324.96c17.09 0 30.95-13.86 30.95-30.95v-12.05l7.07-3.14L744.88 808l102.57-41.03-17.22-70.26 17.73-7.88zM366.87 290.17l38.69-38.69c2.9-2.9 6.84-4.53 10.94-4.53h198.74c4.1 0 8.04 1.63 10.94 4.53l38.69 38.69c6.04 6.04 6.04 15.84 0 21.88L552.02 424.9h-72.29L366.87 312.05c-6.04-6.04-6.04-15.84 0-21.88zM265.18 769.09l-52.17-20.87 9.49-38.74 60.62 26.94-17.94 32.67z m53.39-50.78l-105.05-46.69 73.55-245.17 31.51 15.75v276.11z m355.91-295.24v325.68c0 8.55-6.93 15.47-15.47 15.47H365c-8.55 0-15.47-6.93-15.47-15.47V423.07l-53.43-26.71 4.11-13.7c0.74-2.45 2.07-4.68 3.88-6.5l41.57-41.57 112.19 112.19v102.38h30.95v-93.31h46.42v93.31h30.95v-94.64l116.06-116.06 37.7 37.7c1.81 1.81 3.14 4.04 3.88 6.5l4.11 13.7-53.44 26.71z m30.95 295.24V442.2l31.51-15.75 73.55 245.17-105.06 46.69z m53.39 50.78l-17.94-32.67 60.62-26.94 9.49 38.74-52.17 20.87z" fill="#FFB400" p-id="924"></path><path d="M265.18 769.09l-52.17-20.87 9.49-38.74 60.63 26.94z" fill="#0277B2" p-id="925"></path><path d="M318.57 718.31l-105.05-46.69 73.55-245.17 31.5 15.75z" fill="#E60037" p-id="926"></path><path d="M674.48 423.07v325.68c0 8.55-6.93 15.47-15.47 15.47H365c-8.55 0-15.47-6.93-15.47-15.47V423.07l-53.43-26.71 4.11-13.7c0.74-2.45 2.07-4.68 3.88-6.5l41.57-41.57 112.19 112.19v102.38h30.95v-93.31h46.42v93.31h30.95v-94.64l116.06-116.06 37.7 37.7c1.81 1.81 3.14 4.04 3.88 6.5l4.11 13.7-53.44 26.71z" fill="#E60037" p-id="927"></path><path d="M705.43 718.31V442.2l31.5-15.75 73.55 245.17z" fill="#E60037" p-id="928"></path><path d="M758.82 769.09l-17.95-32.67 60.63-26.94 9.49 38.74z" fill="#6DB213" p-id="929"></path></svg>